# xmcd
#
# Track frame offsets:
# 150
# 16562
# 34450
# 53962
# 70625
# 89285
# 106925
# 120415
# 137317
# 153775
#
# Disc length: 2321 seconds
#
# Revision: 2
# Processed by: cddbd v1.5.1PL0 Copyright (c) Steve Scherf et al.
# Submitted via: Axialis_AX_CDPlayer 2.6
#
DISCID=6d090f0a
DTITLE=Garry Morris - Stones
DYEAR=1900
DGENRE=
TTITLE0=Chrome Plated Heart
TTITLE1=Shelter
TTITLE2=Never Had A Love Song
TTITLE3=Bread And Water
TTITLE4=Stones (Dig A Little Deeper)
TTITLE5=Sooner or Later
TTITLE6=The Jaws of Modern Romance
TTITLE7=So Little Love In The World
TTITLE8=Stand My Ground
TTITLE9=Love Will Provide
EXTD=
EXTT0=
EXTT1=
EXTT2=
EXTT3=
EXTT4=
EXTT5=
EXTT6=
EXTT7=
EXTT8=
EXTT9=
PLAYORDER=
